Coordinates
version=1
nRows=13
nColumns=40
inDegrees=yes

Units are S.I. units (second, meters, Newtons, ...)
If the header above contains a line with 'inDegrees', this indicates whether rotational values are in degrees (yes) or radians (no).

endheader
time	pelvis_tilt	pelvis_list	pelvis_rotation	pelvis_tx	pelvis_ty	pelvis_tz	hip_flexion_r	hip_adduction_r	hip_rotation_r	knee_angle_r	knee_angle_r_beta	ankle_angle_r	subtalar_angle_r	mtp_angle_r	hip_flexion_l	hip_adduction_l	hip_rotation_l	knee_angle_l	knee_angle_l_beta	ankle_angle_l	subtalar_angle_l	mtp_angle_l	lumbar_extension	lumbar_bending	lumbar_rotation	arm_flex_r	arm_add_r	arm_rot_r	elbow_flex_r	pro_sup_r	wrist_flex_r	wrist_dev_r	arm_flex_l	arm_add_l	arm_rot_l	elbow_flex_l	pro_sup_l	wrist_flex_l	wrist_dev_l
      2.97500000	    -20.44067858	     -1.01204248	     -0.12276162	     -0.40689882	      0.75452532	     -0.79621573	     67.28703964	      2.87422276	    -10.44620393	     77.60028133	      1.35438041	     21.67525226	      0.00000000	      0.00000000	     42.25219932	    -12.96546282	      5.70274585	    101.42530937	      1.77020559	    -35.57385347	      0.00000000	      0.00000000	    -11.59634707	    -19.38986393	    -16.10793997	     76.12348002	    -15.17614611	     14.05762679	     60.03777195	     87.52783974	      0.00000000	      0.00000000	     89.96338508	     10.36353907	     30.44482568	     41.80437273	     27.86437439	      0.00000000	      0.00000000
      2.98000000	    -20.53433375	     -0.90802784	     -0.13530223	     -0.40719975	      0.75353805	     -0.79632186	     67.52664626	      2.79506140	    -10.36333831	     77.81489164	      1.35812607	     21.69460533	      0.00000000	      0.00000000	     42.32846315	    -12.92092002	      5.63905174	    101.50901850	      1.77166659	    -35.54489676	      0.00000000	      0.00000000	    -11.49019526	    -19.45078451	    -15.94335249	     76.15202342	    -15.31147170	     14.09752976	     60.04845616	     87.53650352	      0.00000000	      0.00000000	     89.96335652	     10.48199702	     30.57740558	     42.48638573	     18.53689747	      0.00000000	      0.00000000
      2.98500000	    -20.45093917	     -1.13512132	     -0.10133927	     -0.40729910	      0.75303159	     -0.79603828	     67.47370156	      2.94125967	    -10.54571077	     77.86355687	      1.35897543	     21.83054316	      0.00000000	      0.00000000	     42.32856258	    -13.25313112	      5.81649476	    101.50812746	      1.77165104	    -36.24813884	      0.00000000	      0.00000000	    -11.66978698	    -19.21471689	    -16.00967977	     76.22098559	    -15.23680284	     14.16912467	     60.14387380	     86.29129346	      0.00000000	      0.00000000	     89.96352724	     10.36536465	     30.51755209	     42.72392931	     19.52443706	      0.00000000	      0.00000000
      2.99000000	    -20.55663754	     -0.99890961	     -0.11895201	     -0.40759558	      0.75215846	     -0.79607868	     67.71234543	      2.82582396	    -10.48767034	     78.05793885	      1.36236804	     21.84421914	      0.00000000	      0.00000000	     42.39055514	    -13.16031966	      5.74120697	    101.63896456	      1.77393458	    -35.60681560	      0.00000000	      0.00000000	    -11.58364061	    -19.37377887	    -16.01909996	     76.25797040	    -15.14475523	     13.97868691	     59.96245794	     87.51928839	      0.00000000	      0.00000000	     89.96364475	     10.46685138	     30.24370597	     42.58174316	     19.69856459	      0.00000000	      0.00000000
      2.99500000	    -20.59061895	     -0.99553261	     -0.11818481	     -0.40779640	      0.75143161	     -0.79604158	     67.83279012	      2.82089043	    -10.49329267	     78.18931161	      1.36466093	     21.89562201	      0.00000000	      0.00000000	     42.42904660	    -13.23444992	      5.74411438	    101.69320921	      1.77488133	    -35.59474736	      0.00000000	      0.00000000	    -11.57833157	    -19.35888148	    -15.97692688	     76.30188200	    -15.10426211	     13.91239058	     59.95707814	     87.53606083	      0.00000000	      0.00000000	     89.96373015	     10.47166707	     30.16738336	     42.64431609	     20.12463974	      0.00000000	      0.00000000
      3.00000000	    -20.60922507	     -0.96242288	     -0.10325247	     -0.40803583	      0.75069222	     -0.79603891	     67.96496288	      2.77513650	    -10.48433903	     78.35976577	      1.36763591	     21.87770808	      0.00000000	      0.00000000	     42.46951550	    -13.25416856	      5.75992649	    101.73884993	      1.77567791	    -35.76153616	      0.00000000	      0.00000000	    -11.59865455	    -19.37533777	    -15.98891929	     76.33109742	    -15.03096478	     13.82144425	     59.92050836	     87.40589342	      0.00000000	      0.00000000	     89.96389452	     10.42571410	     30.17681165	     42.68855658	     20.40898693	      0.00000000	      0.00000000
      3.00500000	    -20.65540492	     -0.93040349	     -0.10203893	     -0.40822523	      0.74993311	     -0.79599583	     68.09929162	      2.74786901	    -10.47896699	     78.50250050	      1.37012710	     21.98576899	      0.00000000	      0.00000000	     42.52683888	    -13.30860939	      5.74263453	    101.80088729	      1.77676066	    -35.71518000	      0.00000000	      0.00000000	    -11.58288454	    -19.39513318	    -15.96581485	     76.38720633	    -15.04199383	     13.85173960	     59.85045949	     87.51403913	      0.00000000	      0.00000000	     89.96396484	     10.44752849	     30.00878099	     42.70279773	     20.45642040	      0.00000000	      0.00000000
      3.01000000	    -20.69547586	     -0.98930109	     -0.09634595	     -0.40840683	      0.74916908	     -0.79590100	     68.23127619	      2.76192392	    -10.56184364	     78.62490814	      1.37226352	     21.99232595	      0.00000000	      0.00000000	     42.61135743	    -13.44958107	      5.80137527	    101.85604030	      1.77772327	    -35.84270501	      0.00000000	      0.00000000	    -11.55701167	    -19.30495595	    -15.91373828	     76.42032830	    -15.00434166	     13.81468855	     59.85513878	     87.46495615	      0.00000000	      0.00000000	     89.96403750	     10.43058043	     29.99649563	     42.73271923	     20.71754806	      0.00000000	      0.00000000
      3.01500000	    -20.74572730	     -0.96803188	     -0.12208401	     -0.40861183	      0.74836070	     -0.79579612	     68.39037881	      2.79297895	    -10.50862842	     78.81827824	      1.37563847	     22.06426640	      0.00000000	      0.00000000	     42.66211562	    -13.50132213	      5.79735966	    101.91794438	      1.77880370	    -35.81427212	      0.00000000	      0.00000000	    -11.51705149	    -19.32257235	    -15.85365470	     76.45495289	    -14.95950434	     13.74776644	     59.83279445	     87.47071430	      0.00000000	      0.00000000	     89.96413559	     10.44633550	     29.91181905	     42.75037047	     20.89900246	      0.00000000	      0.00000000
      3.02000000	    -20.73913352	     -0.93971831	     -0.14929719	     -0.40869057	      0.74768696	     -0.79576052	     68.46480206	      2.77669296	    -10.51445206	     78.93285869	      1.37763827	     22.16627372	      0.00000000	      0.00000000	     42.63507596	    -13.54511016	      5.80119253	    101.95715194	      1.77948800	    -35.72292492	      0.00000000	      0.00000000	    -11.54624049	    -19.35792275	    -15.80559140	     76.47006268	    -14.98298455	     13.79387195	     59.80891335	     87.48269907	      0.00000000	      0.00000000	     89.96420749	     10.48716101	     29.82401459	     42.77224753	     20.92300853	      0.00000000	      0.00000000
      3.02500000	    -20.73799978	     -0.96130771	     -0.10663052	     -0.40883671	      0.74704013	     -0.79575740	     68.54729103	      2.75264623	    -10.54643010	     79.10525701	      1.38064719	     22.19613251	      0.00000000	      0.00000000	     42.65950477	    -13.60084964	      5.88525034	    101.97988750	      1.77988481	    -35.79104375	      0.00000000	      0.00000000	    -11.58833370	    -19.29207758	    -15.78949523	     76.49787480	    -14.99301926	     13.75596712	     59.80497303	     87.52873251	      0.00000000	      0.00000000	     89.96426817	     10.48362009	     29.76511576	     42.85226541	     20.96024730	      0.00000000	      0.00000000
      3.03000000	    -20.75150714	     -0.97159415	     -0.07661367	     -0.40899715	      0.74636065	     -0.79571736	     68.65425834	      2.73365709	    -10.56959286	     79.23447515	      1.38290247	     22.26255187	      0.00000000	      0.00000000	     42.70918208	    -13.66371707	      5.92747981	    102.01278208	      1.78045893	    -35.91538889	      0.00000000	      0.00000000	    -11.62360111	    -19.27172908	    -15.79266567	     76.55277978	    -14.95486139	     13.70521529	     59.75940922	     87.47670547	      0.00000000	      0.00000000	     89.96435101	     10.50726671	     29.71691383	     42.90502337	     21.10120999	      0.00000000	      0.00000000
      3.03500000	    -20.76551711	     -0.95409025	     -0.09715335	     -0.40913082	      0.74566197	     -0.79558967	     68.75351925	      2.75159863	    -10.55288349	     79.36822867	      1.38523691	     22.33514120	      0.00000000	      0.00000000	     42.73162458	    -13.72356119	      5.93473755	    102.04650671	      1.78104753	    -35.91432945	      0.00000000	      0.00000000	    -11.61978997	    -19.29231149	    -15.74320140	     76.56124911	    -14.95669162	     13.70542792	     59.76731979	     87.52716724	      0.00000000	      0.00000000	     89.96444138	     10.50427571	     29.68310205	     42.90108594	     21.21771502	      0.00000000	      0.00000000
